<mxfile host="Electron" modified="2023-12-10T19:19:40.628Z" agent="Mozilla/5.0 (X11; Linux x86_64) AppleWebKit/537.36 (KHTML, like Gecko) draw.io/22.1.2 Chrome/114.0.5735.289 Electron/25.9.4 Safari/537.36" etag="31Kmv6gSBiDbyqojw2TY" version="22.1.2" type="device">
  <diagram id="C5RBs43oDa-KdzZeNtuy" name="Page-1">
    <mxGraphModel dx="426" dy="788" grid="1" gridSize="10" guides="1" tooltips="1" connect="1" arrows="1" fold="1" page="1" pageScale="1" pageWidth="827" pageHeight="1169" math="0" shadow="0">
      <root>
        <mxCell id="WIyWlLk6GJQsqaUBKTNV-0" />
        <mxCell id="WIyWlLk6GJQsqaUBKTNV-1" parent="WIyWlLk6GJQsqaUBKTNV-0" />
        <mxCell id="WIyWlLk6GJQsqaUBKTNV-2" value="" style="rounded=0;html=1;jettySize=auto;orthogonalLoop=1;fontSize=11;endArrow=block;endFill=0;endSize=8;strokeWidth=1;shadow=0;labelBackgroundColor=none;edgeStyle=orthogonalEdgeStyle;entryX=0.5;entryY=0;entryDx=0;entryDy=0;" parent="WIyWlLk6GJQsqaUBKTNV-1" source="WIyWlLk6GJQsqaUBKTNV-3" target="0Ez65HP_lSPFdm1-s35u-0" edge="1">
          <mxGeometry relative="1" as="geometry">
            <mxPoint x="375" y="200" as="targetPoint" />
          </mxGeometry>
        </mxCell>
        <mxCell id="WIyWlLk6GJQsqaUBKTNV-3" value="Inicio" style="rounded=1;whiteSpace=wrap;html=1;fontSize=12;glass=0;strokeWidth=1;shadow=0;" parent="WIyWlLk6GJQsqaUBKTNV-1" vertex="1">
          <mxGeometry x="315" y="110" width="120" height="40" as="geometry" />
        </mxCell>
        <mxCell id="0Ez65HP_lSPFdm1-s35u-4" style="edgeStyle=orthogonalEdgeStyle;rounded=0;orthogonalLoop=1;jettySize=auto;html=1;exitX=0.5;exitY=1;exitDx=0;exitDy=0;" edge="1" parent="WIyWlLk6GJQsqaUBKTNV-1" source="0Ez65HP_lSPFdm1-s35u-0" target="0Ez65HP_lSPFdm1-s35u-3">
          <mxGeometry relative="1" as="geometry" />
        </mxCell>
        <mxCell id="0Ez65HP_lSPFdm1-s35u-0" value="Imprimir (&quot;Ingrese un número&quot;)" style="shape=parallelogram;perimeter=parallelogramPerimeter;whiteSpace=wrap;html=1;fixedSize=1;" vertex="1" parent="WIyWlLk6GJQsqaUBKTNV-1">
          <mxGeometry x="300" y="210" width="150" height="60" as="geometry" />
        </mxCell>
        <mxCell id="0Ez65HP_lSPFdm1-s35u-6" style="edgeStyle=orthogonalEdgeStyle;rounded=0;orthogonalLoop=1;jettySize=auto;html=1;exitX=0.5;exitY=1;exitDx=0;exitDy=0;entryX=0.5;entryY=0;entryDx=0;entryDy=0;" edge="1" parent="WIyWlLk6GJQsqaUBKTNV-1" source="0Ez65HP_lSPFdm1-s35u-3" target="0Ez65HP_lSPFdm1-s35u-5">
          <mxGeometry relative="1" as="geometry" />
        </mxCell>
        <mxCell id="0Ez65HP_lSPFdm1-s35u-3" value="Leer número" style="shape=manualInput;whiteSpace=wrap;html=1;" vertex="1" parent="WIyWlLk6GJQsqaUBKTNV-1">
          <mxGeometry x="335" y="320" width="80" height="80" as="geometry" />
        </mxCell>
        <mxCell id="0Ez65HP_lSPFdm1-s35u-8" style="edgeStyle=orthogonalEdgeStyle;rounded=0;orthogonalLoop=1;jettySize=auto;html=1;entryX=0.5;entryY=0;entryDx=0;entryDy=0;" edge="1" parent="WIyWlLk6GJQsqaUBKTNV-1" source="0Ez65HP_lSPFdm1-s35u-5" target="0Ez65HP_lSPFdm1-s35u-7">
          <mxGeometry relative="1" as="geometry" />
        </mxCell>
        <mxCell id="0Ez65HP_lSPFdm1-s35u-11" style="edgeStyle=orthogonalEdgeStyle;rounded=0;orthogonalLoop=1;jettySize=auto;html=1;entryX=0.5;entryY=0;entryDx=0;entryDy=0;" edge="1" parent="WIyWlLk6GJQsqaUBKTNV-1" source="0Ez65HP_lSPFdm1-s35u-5" target="0Ez65HP_lSPFdm1-s35u-10">
          <mxGeometry relative="1" as="geometry" />
        </mxCell>
        <mxCell id="0Ez65HP_lSPFdm1-s35u-5" value="numero &amp;lt;= 1" style="rhombus;whiteSpace=wrap;html=1;" vertex="1" parent="WIyWlLk6GJQsqaUBKTNV-1">
          <mxGeometry x="325" y="430" width="100" height="60" as="geometry" />
        </mxCell>
        <mxCell id="0Ez65HP_lSPFdm1-s35u-7" value="Imprimir (&quot;El número no es primo&quot;)" style="shape=parallelogram;perimeter=parallelogramPerimeter;whiteSpace=wrap;html=1;fixedSize=1;" vertex="1" parent="WIyWlLk6GJQsqaUBKTNV-1">
          <mxGeometry x="60" y="540" width="220" height="60" as="geometry" />
        </mxCell>
        <mxCell id="0Ez65HP_lSPFdm1-s35u-9" value="Verdadero" style="text;html=1;align=center;verticalAlign=middle;resizable=0;points=[];autosize=1;strokeColor=none;fillColor=none;" vertex="1" parent="WIyWlLk6GJQsqaUBKTNV-1">
          <mxGeometry x="170" y="420" width="80" height="30" as="geometry" />
        </mxCell>
        <mxCell id="0Ez65HP_lSPFdm1-s35u-13" style="edgeStyle=orthogonalEdgeStyle;rounded=0;orthogonalLoop=1;jettySize=auto;html=1;entryX=0.5;entryY=0;entryDx=0;entryDy=0;" edge="1" parent="WIyWlLk6GJQsqaUBKTNV-1" source="0Ez65HP_lSPFdm1-s35u-10" target="0Ez65HP_lSPFdm1-s35u-12">
          <mxGeometry relative="1" as="geometry" />
        </mxCell>
        <mxCell id="0Ez65HP_lSPFdm1-s35u-10" value="esPrimo = true" style="rounded=0;whiteSpace=wrap;html=1;" vertex="1" parent="WIyWlLk6GJQsqaUBKTNV-1">
          <mxGeometry x="520" y="540" width="120" height="60" as="geometry" />
        </mxCell>
        <mxCell id="0Ez65HP_lSPFdm1-s35u-17" style="edgeStyle=orthogonalEdgeStyle;rounded=0;orthogonalLoop=1;jettySize=auto;html=1;entryX=0.5;entryY=0;entryDx=0;entryDy=0;" edge="1" parent="WIyWlLk6GJQsqaUBKTNV-1" source="0Ez65HP_lSPFdm1-s35u-12" target="0Ez65HP_lSPFdm1-s35u-16">
          <mxGeometry relative="1" as="geometry" />
        </mxCell>
        <mxCell id="0Ez65HP_lSPFdm1-s35u-19" style="edgeStyle=orthogonalEdgeStyle;rounded=0;orthogonalLoop=1;jettySize=auto;html=1;entryX=0.5;entryY=1;entryDx=0;entryDy=0;" edge="1" parent="WIyWlLk6GJQsqaUBKTNV-1" source="0Ez65HP_lSPFdm1-s35u-12" target="0Ez65HP_lSPFdm1-s35u-12">
          <mxGeometry relative="1" as="geometry">
            <mxPoint x="750" y="860" as="targetPoint" />
            <Array as="points">
              <mxPoint x="730" y="730" />
              <mxPoint x="730" y="860" />
              <mxPoint x="580" y="860" />
            </Array>
          </mxGeometry>
        </mxCell>
        <mxCell id="0Ez65HP_lSPFdm1-s35u-12" value="numero % i == 0" style="rhombus;whiteSpace=wrap;html=1;" vertex="1" parent="WIyWlLk6GJQsqaUBKTNV-1">
          <mxGeometry x="510" y="680" width="140" height="100" as="geometry" />
        </mxCell>
        <mxCell id="0Ez65HP_lSPFdm1-s35u-15" value="Falso" style="text;html=1;align=center;verticalAlign=middle;resizable=0;points=[];autosize=1;strokeColor=none;fillColor=none;" vertex="1" parent="WIyWlLk6GJQsqaUBKTNV-1">
          <mxGeometry x="555" y="420" width="50" height="30" as="geometry" />
        </mxCell>
        <mxCell id="0Ez65HP_lSPFdm1-s35u-16" value="esPrimo = false" style="rounded=0;whiteSpace=wrap;html=1;" vertex="1" parent="WIyWlLk6GJQsqaUBKTNV-1">
          <mxGeometry x="330" y="870" width="120" height="60" as="geometry" />
        </mxCell>
        <mxCell id="0Ez65HP_lSPFdm1-s35u-18" value="Verdadero&lt;br&gt;" style="text;html=1;align=center;verticalAlign=middle;resizable=0;points=[];autosize=1;strokeColor=none;fillColor=none;" vertex="1" parent="WIyWlLk6GJQsqaUBKTNV-1">
          <mxGeometry x="355" y="690" width="80" height="30" as="geometry" />
        </mxCell>
        <mxCell id="0Ez65HP_lSPFdm1-s35u-20" value="i &amp;lt;= raiz cuadrada (número)" style="text;html=1;align=center;verticalAlign=middle;resizable=0;points=[];autosize=1;strokeColor=none;fillColor=none;" vertex="1" parent="WIyWlLk6GJQsqaUBKTNV-1">
          <mxGeometry x="650" y="690" width="170" height="30" as="geometry" />
        </mxCell>
      </root>
    </mxGraphModel>
  </diagram>
</mxfile>
